<svg 
 xmlns="http://www.w3.org/2000/svg"
 xmlns:xlink="http://www.w3.org/1999/xlink"
 width="30px" height="30px">
<path fill-rule="evenodd"  fill="rgb(52, 52, 52)"
 d="M20.900,17.801 C24.573,12.716 23.345,5.675 18.158,2.074 C12.971,-1.526 5.789,-0.322 2.116,4.763 C-1.556,9.848 -0.329,16.889 4.859,20.489 C8.561,23.060 13.456,23.257 17.361,20.996 L25.845,29.265 C26.762,30.210 28.286,30.248 29.250,29.349 C30.214,28.452 30.253,26.958 29.338,26.013 C29.309,25.983 29.281,25.955 29.250,25.927 L20.900,17.801 ZM11.501,18.572 C7.402,18.572 4.079,15.317 4.077,11.299 C4.076,7.281 7.396,4.022 11.496,4.021 C15.589,4.019 18.911,7.269 18.919,11.282 C18.926,15.302 15.607,18.565 11.506,18.572 C11.505,18.572 11.504,18.572 11.501,18.572 Z"/>
</svg>